<?xml version="1.0" encoding="UTF-8"?><svg xmlns="http://www.w3.org/2000/svg" viewBox="0 0 1916.88 356.17"><defs><style>.d{fill:#e95024;}</style></defs><g id="a"/><g id="b"><g id="c"><g><g><path class="d" d="M120.62,155v48.57h-3.64c-42.91,0-65.98,11.33-65.98,46.55v100.79H0V158.64H51v17c13.36-13.76,35.62-20.64,61.52-20.64h8.09Z"/><path class="d" d="M312.03,255.38c0,4.05-.41,10.52-.81,15.78H166.32c5.67,23.48,23.48,39.67,51.81,39.67,19.83,0,36.83-8.1,46.95-21.45l34.4,27.52c-16.6,22.26-41.69,39.26-80.14,39.26-68,0-103.62-49.38-103.62-101.6s40.07-99.57,97.95-99.57c61.93,0,98.36,44.12,98.36,100.38Zm-50.6-20.65c-4.05-21.05-19.02-34-46.55-34-22.67,0-40.88,12.55-47.76,34h94.31Z"/><path class="d" d="M504.73,242.43v108.48h-51v-103.21c0-27.52-11.74-44.12-38.05-44.12s-40.07,12.14-40.07,45.33v102h-51V158.64h51v15.38c12.14-11.74,29.14-19.02,51.81-19.02,40.88,0,77.31,23.88,77.31,87.43Z"/><path class="d" d="M591.31,206.81v75.69c0,13.76,4.05,25.9,21.45,25.9,12.55,0,23.88-2.02,24.29-2.02v44.93c-.41,0-14.57,4.86-38.45,4.86-38.45,0-58.29-24.69-58.29-63.55v-85.81h-29.95v-48.17h29.95v-63.15h51v63.15h50.6v48.17h-50.6Z"/><path class="d" d="M654.37,321.76c0-17.81,13.76-31.16,31.98-31.16s31.57,13.36,31.57,31.16-13.76,31.98-31.57,31.98-31.98-13.36-31.98-31.98Z"/><path class="d" d="M717.27,255.38c0-55.86,45.33-100.38,102-100.38,36.83,0,68,18.21,86.22,45.33l-42.5,25.9c-9.71-13.76-25.1-22.67-43.31-22.67-28.74,0-50.59,23.88-50.59,51.81s21.86,52.21,50.59,52.21c19.02,0,35.21-9.71,44.53-24.69l42.1,26.31c-17.81,27.93-50.19,46.95-87.02,46.95-56.67,0-102-45.33-102-100.79Z"/><path class="d" d="M902.65,255.38c0-55.86,44.93-100.38,102-100.38s102.81,44.52,102.81,100.38-44.93,100.79-102.81,100.79-102-45.33-102-100.79Zm153,0c0-27.93-21.86-51.81-51-51.81s-50.19,23.88-50.19,51.81,21.45,52.21,50.19,52.21,51-23.88,51-52.21Z"/><path class="d" d="M1421.02,240.4v110.5h-51v-103.62c0-29.55-10.52-43.71-34-43.71-25.1,0-39.67,12.14-39.67,45.33v102h-51v-103.62c0-29.55-10.52-43.71-34.41-43.71s-39.67,12.14-39.67,45.33v102h-51V158.64h51v15.38c12.14-11.74,29.55-19.02,52.21-19.02s44.53,8.1,58.29,28.74c13.76-16.19,34.81-28.74,66.38-28.74,36.43,0,72.86,21.45,72.86,85.41Z"/><path class="d" d="M1441.33,321.76c0-17.81,13.76-31.16,31.98-31.16s31.57,13.36,31.57,31.16-13.76,31.98-31.57,31.98-31.98-13.36-31.98-31.98Z"/><path class="d" d="M1711.83,158.64v192.26h-51v-15.38c-14.98,12.14-34,19.02-55.45,19.02-53.02,0-99.17-43.71-99.17-99.98s46.14-99.57,99.17-99.57c21.45,0,40.48,6.88,55.45,19.02v-15.38h51Zm-51,95.93c0-27.93-22.67-51.81-51.81-51.81s-51,23.88-51,51.81,23.07,52.22,51,52.22,51.81-23.88,51.81-52.22Z"/><path class="d" d="M1735.14,269.14v-110.5h51v99.17c0,31.98,10.52,49.38,39.67,49.38s40.07-17.41,40.07-49.38v-99.17h51v110.5c0,59.9-40.07,87.02-91.07,87.02s-90.67-27.12-90.67-87.02Z"/></g><polygon class="d" points="312.39 0 121.13 105.06 142.95 147.95 312.39 53.99 481.84 147.95 503.66 105.06 312.39 0"/></g></g></g></svg>